<mxfile>
    <diagram id="BTdJSurVt_AeKe8d41cu" name="第 1 页">
        <mxGraphModel dx="832" dy="523" grid="1" gridSize="10" guides="1" tooltips="1" connect="1" arrows="1" fold="1" page="1" pageScale="1" pageWidth="827" pageHeight="1169" math="0" shadow="0">
            <root>
                <mxCell id="0"/>
                <mxCell id="1" parent="0"/>
                <mxCell id="4" value="" style="edgeStyle=orthogonalEdgeStyle;rounded=0;orthogonalLoop=1;jettySize=auto;html=1;" edge="1" parent="1" source="2" target="3">
                    <mxGeometry relative="1" as="geometry"/>
                </mxCell>
                <mxCell id="2" value="准备材料:&lt;br&gt;1.住房手续(用老房子找村上开一个证明,盖章)&lt;br&gt;2.分家协议" style="rounded=0;whiteSpace=wrap;html=1;align=left;" vertex="1" parent="1">
                    <mxGeometry x="220" y="60" width="270" height="60" as="geometry"/>
                </mxCell>
                <mxCell id="6" value="" style="edgeStyle=orthogonalEdgeStyle;rounded=0;orthogonalLoop=1;jettySize=auto;html=1;" edge="1" parent="1" source="3" target="5">
                    <mxGeometry relative="1" as="geometry"/>
                </mxCell>
                <mxCell id="3" value="杨林土管所盖章(在镇政府里面)" style="whiteSpace=wrap;html=1;rounded=0;align=center;" vertex="1" parent="1">
                    <mxGeometry x="220" y="200" width="270" height="60" as="geometry"/>
                </mxCell>
                <mxCell id="8" value="" style="edgeStyle=orthogonalEdgeStyle;rounded=0;orthogonalLoop=1;jettySize=auto;html=1;" edge="1" parent="1" source="5" target="7">
                    <mxGeometry relative="1" as="geometry"/>
                </mxCell>
                <mxCell id="5" value="嵩明国土资源局盖章(用导航去)" style="whiteSpace=wrap;html=1;rounded=0;align=center;" vertex="1" parent="1">
                    <mxGeometry x="230" y="340" width="250" height="60" as="geometry"/>
                </mxCell>
                <mxCell id="7" value="带上户口册身份证去派出所" style="whiteSpace=wrap;html=1;rounded=0;" vertex="1" parent="1">
                    <mxGeometry x="230" y="480" width="250" height="60" as="geometry"/>
                </mxCell>
            </root>
        </mxGraphModel>
    </diagram>
</mxfile>